<svg xmlns="http://www.w3.org/2000/svg" width="389" height="616" viewBox="0 0 389 616" version="1.1"><path d="M 76 271.286 C 76 272.899, 76.949 273.045, 85.750 272.786 C 93.045 272.572, 95.500 272.166, 95.500 271.172 C 95.500 270.170, 93.103 269.802, 85.750 269.672 C 76.991 269.517, 75.999 269.682, 76 271.286 M 99 269.717 C 99 270.537, 115.222 290, 115.863 289.949 C 116.213 289.920, 118.975 286.770, 122 282.948 L 127.500 275.999 127.777 289.999 C 128.039 303.175, 128.171 304, 130.027 304 C 131.913 304, 132 303.254, 132 287 L 132 270 129.524 270 C 127.611 270, 125.765 271.704, 121.411 277.488 L 115.775 284.977 109.892 277.606 C 106.119 272.879, 103.109 270.063, 101.504 269.756 C 100.127 269.493, 99 269.475, 99 269.717 M 134.667 269.667 C 134.300 270.033, 134 270.933, 134 271.667 C 134 272.689, 136.333 273, 144 273 C 153.333 273, 154 272.867, 154 271 C 154 269.143, 153.333 269, 144.667 269 C 139.533 269, 135.033 269.300, 134.667 269.667 M 156 271 C 156 272.810, 156.667 273, 163 273 L 170 273 170 288.500 C 170 303.333, 170.086 304, 172 304 C 173.914 304, 174 303.333, 174 288.500 L 174 273 180 273 C 185.333 273, 186 272.778, 186 271 C 186 269.089, 185.333 269, 171 269 C 156.667 269, 156 269.089, 156 271 M 192.077 271.589 C 189.727 273.566, 189 275, 189 277.655 C 189 282.714, 190.588 284.935, 195.836 287.214 C 200.942 289.431, 205 292.675, 205 294.539 C 205 296.672, 200.905 301, 198.888 301 C 197.806 301, 195.138 300.091, 192.960 298.980 L 189 296.959 189 299.531 C 189 301.551, 189.794 302.434, 192.702 303.649 C 197.824 305.789, 202.825 304.818, 206.250 301.019 C 211.548 295.142, 209.410 289.283, 200.417 285.035 C 194.019 282.012, 192.303 279.771, 193.499 276.002 C 194.499 272.852, 199.758 272.170, 205.250 274.478 C 206.599 275.046, 207 274.726, 207 273.082 C 207 268.514, 196.929 267.506, 192.077 271.589 M 222.459 270.818 C 217.928 272.945, 213.316 277.892, 212.378 281.631 C 211.296 285.940, 212.573 293.592, 214.925 296.895 C 218.117 301.377, 224.419 304.379, 230.526 304.326 C 244.609 304.205, 253.197 289.612, 246.179 277.727 C 241.847 270.391, 230.443 267.069, 222.459 270.818 M 251 271 C 251 272.867, 251.667 273, 261 273 C 270.333 273, 271 272.867, 271 271 C 271 269.133, 270.333 269, 261 269 C 251.667 269, 251 269.133, 251 271 M 273 271 C 273 272.795, 273.667 273, 279.500 273 L 286 273 286 288.500 C 286 303.333, 286.086 304, 288 304 C 289.914 304, 290 303.333, 290 288.500 L 290 273 296.500 273 C 302.333 273, 303 272.795, 303 271 C 303 269.089, 302.333 269, 288 269 C 273.667 269, 273 269.089, 273 271 M 225.741 273.418 C 219.083 275.814, 215.997 280.024, 216.004 286.700 C 216.017 300.598, 234.889 306.006, 242.184 294.203 C 249.191 282.864, 238.177 268.942, 225.741 273.418 M 76 286.500 C 76 287.733, 77.778 288, 86 288 C 94.222 288, 96 287.733, 96 286.500 C 96 285.267, 94.222 285, 86 285 C 77.778 285, 76 285.267, 76 286.500 M 134.188 286.750 C 134.475 288.250, 135.916 288.541, 144.262 288.786 C 153.485 289.057, 154 288.965, 154 287.036 C 154 285.123, 153.393 285, 143.927 285 C 134.872 285, 133.887 285.177, 134.188 286.750 M 251 287 C 251 288.867, 251.667 289, 261 289 C 270.333 289, 271 288.867, 271 287 C 271 285.133, 270.333 285, 261 285 C 251.667 285, 251 285.133, 251 287 M 76 302.500 C 76 303.733, 77.778 304, 86 304 C 94.222 304, 96 303.733, 96 302.500 C 96 301.267, 94.222 301, 86 301 C 77.778 301, 76 301.267, 76 302.500 M 134 302.500 C 134 303.733, 135.778 304, 144 304 C 152.222 304, 154 303.733, 154 302.500 C 154 301.267, 152.222 301, 144 301 C 135.778 301, 134 301.267, 134 302.500 M 137.126 309.348 C 136.272 310.377, 136.480 311.125, 138.004 312.503 C 140.649 314.898, 140.647 317.402, 137.999 316.710 C 136.898 316.422, 136.249 316.595, 136.558 317.093 C 137.430 318.505, 140.725 318.160, 141.326 316.594 C 141.622 315.821, 140.995 314.401, 139.933 313.439 C 137.586 311.315, 137.324 308.527, 139.552 309.382 C 140.442 309.723, 140.843 309.555, 140.493 308.989 C 139.650 307.624, 138.451 307.752, 137.126 309.348 M 143.882 309.554 C 143.632 310.624, 143.690 313.075, 144.012 315 L 144.596 318.500 145.088 314.827 C 145.662 310.547, 144.666 306.194, 143.882 309.554 M 174.286 313 C 174.294 316.025, 174.490 317.235, 174.722 315.690 C 175.053 313.488, 175.607 312.947, 177.281 313.190 C 178.564 313.376, 179.694 314.499, 180.109 316 C 180.603 317.784, 180.796 317.068, 180.784 313.500 C 180.775 310.750, 180.562 309.288, 180.311 310.250 C 179.612 312.925, 175.242 312.536, 174.706 309.750 C 174.467 308.512, 174.279 309.975, 174.286 313 M 161 309.961 C 161 310.532, 159.875 311, 158.500 311 C 156.257 311, 156.012 311.385, 156.118 314.750 C 156.232 318.369, 156.259 318.396, 156.876 315.512 C 157.241 313.805, 158.262 312.381, 159.258 312.189 C 160.610 311.928, 161.034 312.597, 161.150 315.177 L 161.300 318.500 161.740 315.503 C 161.982 313.855, 162.540 312.280, 162.980 312.003 C 163.419 311.726, 163.153 310.920, 162.389 310.211 C 161.588 309.467, 161 309.361, 161 309.961 M 148.058 312.430 C 146.060 314.838, 148.460 318.073, 152.042 317.800 C 154.629 317.603, 155 317.189, 155 314.500 C 155 311.832, 154.621 311.396, 152.128 311.207 C 150.548 311.086, 148.716 311.637, 148.058 312.430 M 165 312.378 C 165 313.135, 165.719 314.352, 166.597 315.080 C 168.047 316.284, 168.024 316.473, 166.347 317.133 C 164.748 317.762, 164.727 317.869, 166.191 317.930 C 168.795 318.038, 169.527 315.859, 167.408 314.309 C 165.772 313.113, 165.716 312.791, 167.005 311.976 C 168.276 311.172, 168.238 311.028, 166.750 311.015 C 165.787 311.007, 165 311.620, 165 312.378 M 183.127 312.763 C 181.627 315.565, 183.578 318.064, 187.056 317.799 C 189.628 317.603, 190 317.186, 190 314.500 C 190 311.811, 189.629 311.397, 187.042 311.200 C 185.060 311.049, 183.768 311.565, 183.127 312.763 M 192.079 315.750 C 192.122 318.363, 192.385 319.938, 192.662 319.250 C 192.940 318.563, 194.206 318, 195.476 318 C 198.036 318, 199.361 315.713, 198.455 312.859 C 198.057 311.604, 196.913 311, 194.933 311 C 192.090 311, 192.002 311.145, 192.079 315.750 M 201.015 315.750 C 201.024 318.363, 201.361 319.990, 201.765 319.366 C 202.169 318.742, 203.352 318.067, 204.393 317.866 C 209.320 316.914, 208.445 311, 203.378 311 C 201.206 311, 201.001 311.411, 201.015 315.750 M 209.970 312.536 C 207.563 315.437, 212.514 319.886, 215.182 317.218 C 215.808 316.592, 215.281 316.415, 213.693 316.718 C 212.341 316.977, 210.930 316.696, 210.558 316.094 C 210.124 315.391, 211.001 315, 213.014 315 C 215.458 315, 216.073 314.615, 215.813 313.250 C 215.371 310.931, 211.677 310.480, 209.970 312.536 M 218.118 314.899 C 218.235 318.461, 218.244 318.468, 218.876 315.512 C 219.737 311.487, 222.725 310.929, 223.275 314.690 C 223.680 317.458, 223.685 317.455, 223.593 314.500 C 223.514 311.943, 223.094 311.485, 220.750 311.399 C 218.220 311.306, 218.009 311.586, 218.118 314.899 M 226.252 314.500 C 226.263 316.700, 226.468 317.482, 226.707 316.238 C 226.946 314.994, 226.937 313.194, 226.687 312.238 C 226.437 311.282, 226.241 312.300, 226.252 314.500 M 229.160 314.684 C 229.315 318.376, 229.333 318.395, 229.723 315.250 C 230.252 310.994, 233.669 310.619, 234.280 314.750 C 234.663 317.345, 234.681 317.330, 234.593 314.500 C 234.515 311.999, 234.043 311.447, 231.750 311.184 C 229.152 310.885, 229.009 311.079, 229.160 314.684 M 237.058 312.430 C 235.129 314.755, 237.532 318.323, 240.628 317.731 C 242.168 317.436, 242.931 317.678, 242.680 318.381 C 242.461 318.996, 241.083 319.414, 239.618 319.309 C 238.153 319.203, 237.216 319.541, 237.536 320.059 C 238.352 321.379, 241.369 321.231, 242.800 319.800 C 243.460 319.140, 244 316.986, 244 315.013 C 244 311.780, 243.716 311.404, 241.128 311.207 C 239.548 311.086, 237.716 311.637, 237.058 312.430 M 148.720 313.288 C 147.927 315.354, 149.475 317.248, 151.620 316.835 C 154.277 316.323, 154.081 312.583, 151.377 312.197 C 150.210 312.031, 149.014 312.521, 148.720 313.288 M 183.720 313.288 C 182.927 315.354, 184.475 317.248, 186.620 316.835 C 189.277 316.323, 189.081 312.583, 186.377 312.197 C 185.210 312.031, 184.014 312.521, 183.720 313.288 M 193 314.500 C 193 316.665, 193.404 317.082, 195.250 316.820 C 196.727 316.610, 197.500 315.813, 197.500 314.500 C 197.500 313.187, 196.727 312.390, 195.250 312.180 C 193.404 311.918, 193 312.335, 193 314.500 M 202 314.500 C 202 316.665, 202.404 317.082, 204.250 316.820 C 205.727 316.610, 206.500 315.813, 206.500 314.500 C 206.500 313.187, 205.727 312.390, 204.250 312.180 C 202.404 311.918, 202 312.335, 202 314.500 M 211 313 C 211 313.550, 211.900 314, 213 314 C 214.100 314, 215 313.550, 215 313 C 215 312.450, 214.100 312, 213 312 C 211.900 312, 211 312.450, 211 313 M 237.720 313.288 C 236.927 315.354, 238.475 317.248, 240.620 316.835 C 243.277 316.323, 243.081 312.583, 240.377 312.197 C 239.210 312.031, 238.014 312.521, 237.720 313.288" stroke="none" fill="#a29986" fill-rule="evenodd"/><path d="M -0 308.003 L -0 616.005 194.750 615.753 L 389.500 615.500 389.752 307.750 L 390.003 -0 195.002 -0 L 0 0 -0 308.003 M 0.494 308.500 C 0.494 477.900, 0.609 547.349, 0.750 462.831 C 0.891 378.313, 0.891 239.713, 0.750 154.831 C 0.609 69.949, 0.494 139.100, 0.494 308.500 M 76 271.286 C 76 272.899, 76.949 273.045, 85.750 272.786 C 93.045 272.572, 95.500 272.166, 95.500 271.172 C 95.500 270.170, 93.103 269.802, 85.750 269.672 C 76.991 269.517, 75.999 269.682, 76 271.286 M 99 269.717 C 99 270.537, 115.222 290, 115.863 289.949 C 116.213 289.920, 118.975 286.770, 122 282.948 L 127.500 275.999 127.777 289.999 C 128.039 303.175, 128.171 304, 130.027 304 C 131.913 304, 132 303.254, 132 287 L 132 270 129.524 270 C 127.611 270, 125.765 271.704, 121.411 277.488 L 115.775 284.977 109.892 277.606 C 106.119 272.879, 103.109 270.063, 101.504 269.756 C 100.127 269.493, 99 269.475, 99 269.717 M 134.667 269.667 C 134.300 270.033, 134 270.933, 134 271.667 C 134 272.689, 136.333 273, 144 273 C 153.333 273, 154 272.867, 154 271 C 154 269.143, 153.333 269, 144.667 269 C 139.533 269, 135.033 269.300, 134.667 269.667 M 156 271 C 156 272.810, 156.667 273, 163 273 L 170 273 170 288.500 C 170 303.333, 170.086 304, 172 304 C 173.914 304, 174 303.333, 174 288.500 L 174 273 180 273 C 185.333 273, 186 272.778, 186 271 C 186 269.089, 185.333 269, 171 269 C 156.667 269, 156 269.089, 156 271 M 192.077 271.589 C 189.727 273.566, 189 275, 189 277.655 C 189 282.714, 190.588 284.935, 195.836 287.214 C 200.942 289.431, 205 292.675, 205 294.539 C 205 296.672, 200.905 301, 198.888 301 C 197.806 301, 195.138 300.091, 192.960 298.980 L 189 296.959 189 299.531 C 189 301.551, 189.794 302.434, 192.702 303.649 C 197.824 305.789, 202.825 304.818, 206.250 301.019 C 211.548 295.142, 209.410 289.283, 200.417 285.035 C 194.019 282.012, 192.303 279.771, 193.499 276.002 C 194.499 272.852, 199.758 272.170, 205.250 274.478 C 206.599 275.046, 207 274.726, 207 273.082 C 207 268.514, 196.929 267.506, 192.077 271.589 M 222.459 270.818 C 217.928 272.945, 213.316 277.892, 212.378 281.631 C 211.296 285.940, 212.573 293.592, 214.925 296.895 C 218.117 301.377, 224.419 304.379, 230.526 304.326 C 244.609 304.205, 253.197 289.612, 246.179 277.727 C 241.847 270.391, 230.443 267.069, 222.459 270.818 M 251 271 C 251 272.867, 251.667 273, 261 273 C 270.333 273, 271 272.867, 271 271 C 271 269.133, 270.333 269, 261 269 C 251.667 269, 251 269.133, 251 271 M 273 271 C 273 272.795, 273.667 273, 279.500 273 L 286 273 286 288.500 C 286 303.333, 286.086 304, 288 304 C 289.914 304, 290 303.333, 290 288.500 L 290 273 296.500 273 C 302.333 273, 303 272.795, 303 271 C 303 269.089, 302.333 269, 288 269 C 273.667 269, 273 269.089, 273 271 M 225.741 273.418 C 219.083 275.814, 215.997 280.024, 216.004 286.700 C 216.017 300.598, 234.889 306.006, 242.184 294.203 C 249.191 282.864, 238.177 268.942, 225.741 273.418 M 76 286.500 C 76 287.733, 77.778 288, 86 288 C 94.222 288, 96 287.733, 96 286.500 C 96 285.267, 94.222 285, 86 285 C 77.778 285, 76 285.267, 76 286.500 M 134.188 286.750 C 134.475 288.250, 135.916 288.541, 144.262 288.786 C 153.485 289.057, 154 288.965, 154 287.036 C 154 285.123, 153.393 285, 143.927 285 C 134.872 285, 133.887 285.177, 134.188 286.750 M 251 287 C 251 288.867, 251.667 289, 261 289 C 270.333 289, 271 288.867, 271 287 C 271 285.133, 270.333 285, 261 285 C 251.667 285, 251 285.133, 251 287 M 76 302.500 C 76 303.733, 77.778 304, 86 304 C 94.222 304, 96 303.733, 96 302.500 C 96 301.267, 94.222 301, 86 301 C 77.778 301, 76 301.267, 76 302.500 M 134 302.500 C 134 303.733, 135.778 304, 144 304 C 152.222 304, 154 303.733, 154 302.500 C 154 301.267, 152.222 301, 144 301 C 135.778 301, 134 301.267, 134 302.500 M 137.126 309.348 C 136.272 310.377, 136.480 311.125, 138.004 312.503 C 140.649 314.898, 140.647 317.402, 137.999 316.710 C 136.898 316.422, 136.249 316.595, 136.558 317.093 C 137.430 318.505, 140.725 318.160, 141.326 316.594 C 141.622 315.821, 140.995 314.401, 139.933 313.439 C 137.586 311.315, 137.324 308.527, 139.552 309.382 C 140.442 309.723, 140.843 309.555, 140.493 308.989 C 139.650 307.624, 138.451 307.752, 137.126 309.348 M 143.882 309.554 C 143.632 310.624, 143.690 313.075, 144.012 315 L 144.596 318.500 145.088 314.827 C 145.662 310.547, 144.666 306.194, 143.882 309.554 M 174.286 313 C 174.294 316.025, 174.490 317.235, 174.722 315.690 C 175.053 313.488, 175.607 312.947, 177.281 313.190 C 178.564 313.376, 179.694 314.499, 180.109 316 C 180.603 317.784, 180.796 317.068, 180.784 313.500 C 180.775 310.750, 180.562 309.288, 180.311 310.250 C 179.612 312.925, 175.242 312.536, 174.706 309.750 C 174.467 308.512, 174.279 309.975, 174.286 313 M 161 309.961 C 161 310.532, 159.875 311, 158.500 311 C 156.257 311, 156.012 311.385, 156.118 314.750 C 156.232 318.369, 156.259 318.396, 156.876 315.512 C 157.241 313.805, 158.262 312.381, 159.258 312.189 C 160.610 311.928, 161.034 312.597, 161.150 315.177 L 161.300 318.500 161.740 315.503 C 161.982 313.855, 162.540 312.280, 162.980 312.003 C 163.419 311.726, 163.153 310.920, 162.389 310.211 C 161.588 309.467, 161 309.361, 161 309.961 M 148.058 312.430 C 146.060 314.838, 148.460 318.073, 152.042 317.800 C 154.629 317.603, 155 317.189, 155 314.500 C 155 311.832, 154.621 311.396, 152.128 311.207 C 150.548 311.086, 148.716 311.637, 148.058 312.430 M 165 312.378 C 165 313.135, 165.719 314.352, 166.597 315.080 C 168.047 316.284, 168.024 316.473, 166.347 317.133 C 164.748 317.762, 164.727 317.869, 166.191 317.930 C 168.795 318.038, 169.527 315.859, 167.408 314.309 C 165.772 313.113, 165.716 312.791, 167.005 311.976 C 168.276 311.172, 168.238 311.028, 166.750 311.015 C 165.787 311.007, 165 311.620, 165 312.378 M 183.127 312.763 C 181.627 315.565, 183.578 318.064, 187.056 317.799 C 189.628 317.603, 190 317.186, 190 314.500 C 190 311.811, 189.629 311.397, 187.042 311.200 C 185.060 311.049, 183.768 311.565, 183.127 312.763 M 192.079 315.750 C 192.122 318.363, 192.385 319.938, 192.662 319.250 C 192.940 318.563, 194.206 318, 195.476 318 C 198.036 318, 199.361 315.713, 198.455 312.859 C 198.057 311.604, 196.913 311, 194.933 311 C 192.090 311, 192.002 311.145, 192.079 315.750 M 201.015 315.750 C 201.024 318.363, 201.361 319.990, 201.765 319.366 C 202.169 318.742, 203.352 318.067, 204.393 317.866 C 209.320 316.914, 208.445 311, 203.378 311 C 201.206 311, 201.001 311.411, 201.015 315.750 M 209.970 312.536 C 207.563 315.437, 212.514 319.886, 215.182 317.218 C 215.808 316.592, 215.281 316.415, 213.693 316.718 C 212.341 316.977, 210.930 316.696, 210.558 316.094 C 210.124 315.391, 211.001 315, 213.014 315 C 215.458 315, 216.073 314.615, 215.813 313.250 C 215.371 310.931, 211.677 310.480, 209.970 312.536 M 218.118 314.899 C 218.235 318.461, 218.244 318.468, 218.876 315.512 C 219.737 311.487, 222.725 310.929, 223.275 314.690 C 223.680 317.458, 223.685 317.455, 223.593 314.500 C 223.514 311.943, 223.094 311.485, 220.750 311.399 C 218.220 311.306, 218.009 311.586, 218.118 314.899 M 226.252 314.500 C 226.263 316.700, 226.468 317.482, 226.707 316.238 C 226.946 314.994, 226.937 313.194, 226.687 312.238 C 226.437 311.282, 226.241 312.300, 226.252 314.500 M 229.160 314.684 C 229.315 318.376, 229.333 318.395, 229.723 315.250 C 230.252 310.994, 233.669 310.619, 234.280 314.750 C 234.663 317.345, 234.681 317.330, 234.593 314.500 C 234.515 311.999, 234.043 311.447, 231.750 311.184 C 229.152 310.885, 229.009 311.079, 229.160 314.684 M 237.058 312.430 C 235.129 314.755, 237.532 318.323, 240.628 317.731 C 242.168 317.436, 242.931 317.678, 242.680 318.381 C 242.461 318.996, 241.083 319.414, 239.618 319.309 C 238.153 319.203, 237.216 319.541, 237.536 320.059 C 238.352 321.379, 241.369 321.231, 242.800 319.800 C 243.460 319.140, 244 316.986, 244 315.013 C 244 311.780, 243.716 311.404, 241.128 311.207 C 239.548 311.086, 237.716 311.637, 237.058 312.430 M 148.720 313.288 C 147.927 315.354, 149.475 317.248, 151.620 316.835 C 154.277 316.323, 154.081 312.583, 151.377 312.197 C 150.210 312.031, 149.014 312.521, 148.720 313.288 M 183.720 313.288 C 182.927 315.354, 184.475 317.248, 186.620 316.835 C 189.277 316.323, 189.081 312.583, 186.377 312.197 C 185.210 312.031, 184.014 312.521, 183.720 313.288 M 193 314.500 C 193 316.665, 193.404 317.082, 195.250 316.820 C 196.727 316.610, 197.500 315.813, 197.500 314.500 C 197.500 313.187, 196.727 312.390, 195.250 312.180 C 193.404 311.918, 193 312.335, 193 314.500 M 202 314.500 C 202 316.665, 202.404 317.082, 204.250 316.820 C 205.727 316.610, 206.500 315.813, 206.500 314.500 C 206.500 313.187, 205.727 312.390, 204.250 312.180 C 202.404 311.918, 202 312.335, 202 314.500 M 211 313 C 211 313.550, 211.900 314, 213 314 C 214.100 314, 215 313.550, 215 313 C 215 312.450, 214.100 312, 213 312 C 211.900 312, 211 312.450, 211 313 M 237.720 313.288 C 236.927 315.354, 238.475 317.248, 240.620 316.835 C 243.277 316.323, 243.081 312.583, 240.377 312.197 C 239.210 312.031, 238.014 312.521, 237.720 313.288" stroke="none" fill="#fbfbfb" fill-rule="evenodd"/></svg>